Body.Of.Evidence.1993.DvDrip.Eng-Hindi~MSBHATTI

PLOT SUMMARY:- A millionaire is found dead of heart failure handcuffed to the bed with a home video tape of him and his lover. When cocaine is found in his system, and his will leaves $8 million to his lover, they arrest her on suspicion of murder. Her lawyer succumbs to her charms, and he begins a torrid and kinky affair with her. As new evidence turns up during trial, he begins to wonder if he's defending a murderer

Director: Uli Edel
Writer: Brad Mirman
Stars: Madonna, Willem Dafoe and Joe Mantegna

INFO:-

General
Complete name                    : Body.Of.Evidence.DvDrip.Eng-Hindi~MSBHATTI.mkv
Format                           : Matroska
File size                        : 868 MiB
Duration                         : 1h 38mn
Overall bit rate                 : 1 225 Kbps
Encoded date                     : UTC 2011-05-02 14:52:45
Writing application              : mkvmerge v3.3.0 ('Language') built on Mar 24 2010 14:59:24
Writing library                  : libebml v0.8.0 + libmatroska v0.9.0

Video
ID                               : 1
Format                           : MPEG-4 Visual
Format settings, BVOP            : Yes
Format settings, QPel            : No
Format settings, GMC             : No warppoints
Format settings, Matrix          : Default (MPEG)
Codec ID                         : XVID
Codec ID/Hint                    : XviD
Duration                         : 1h 38mn
Bit rate                         : 816 Kbps
Width                            : 576 pixels
Height                           : 304 pixels
Display aspect ratio             : 1.895
Frame rate                       : 23.976 fps
Color space                      : YUV
Chroma subsampling               : 4:2:0
Bit depth                        : 8 bits
Scan type                        : Progressive
Bits/(Pixel*Frame)               : 0.194
Stream size                      : 578 MiB (67%)

Audio #1
ID                               : 2
Format                           : MPEG Audio
Format version                   : Version 1
Format profile                   : Layer 3
Mode                             : Joint stereo
Mode extension                   : MS Stereo
Codec ID                         : A_MPEG/L3
Codec ID/Hint                    : MP3
Duration                         : 1h 38mn
Bit rate mode                    : Variable
Bit rate                         : 129 Kbps
Minimum bit rate                 : 128 Kbps
Channel(s)                       : 2 channels
Sampling rate                    : 48.0 KHz
Stream size                      : 91.0 MiB (10%)
Title                            : MSBHATTI
Writing library                  : LAME3.91 
Encoding settings                : -m j -V 7 -q 2 -lowpass 15.3 --vbr-new -b 128
Language                         : English

Audio #2
ID                               : 3
Format                           : MPEG Audio
Format version                   : Version 1
Format profile                   : Layer 3
Codec ID                         : A_MPEG/L3
Codec ID/Hint                    : MP3
Duration                         : 1h 38mn
Bit rate mode                    : Constant
Bit rate                         : 256 Kbps
Channel(s)                       : 2 channels
Sampling rate                    : 48.0 KHz
Stream size                      : 181 MiB (21%)
Title                            : MSBHATTI
Language                         : Hindi

SCREENSHOTS:-
 
http://i1215.photobucket.com/albums/cc517/msbhatti/BodyOfEvidenceDvDripEng-HindiMSBHATTImkv_snapshot_000003_20110510_1112.jpg 
http://i1215.photobucket.com/albums/cc517/msbhatti/BodyOfEvidenceDvDripEng-HindiMSBHATTImkv_snapshot_000339_20110510_111311.jpg 
http://i1215.photobucket.com/albums/cc517/msbhatti/BodyOfEvidenceDvDripEng-HindiMSBHATTImkv_snapshot_002823_20110510_111336.jpg 
http://i1215.photobucket.com/albums/cc517/msbhatti/BodyOfEvidenceDvDripEng-HindiMSBHATTImkv_snapshot_003641_20110510_111351.jpg 
http://i1215.photobucket.com/albums/cc517/msbhatti/BodyOfEvidenceDvDripEng-HindiMSBHATTImkv_snapshot_005135_20110510_111424.jpg 
http://i1215.photobucket.com/albums/cc517/msbhatti/BodyOfEvidenceDvDripEng-HindiMSBHATTImkv_snapshot_010513_20110510_111435.jpg 
http://i1215.photobucket.com/albums/cc517/msbhatti/BodyOfEvidenceDvDripEng-HindiMSBHATTImkv_snapshot_010653_20110510_111559.jpg 
http://i1215.photobucket.com/albums/cc517/msbhatti/BodyOfEvidenceDvDripEng-HindiMSBHATTImkv_snapshot_013135_20110510_111500.jpg

IF U LIKE MY WORK SO COMMENT PLZZ

AND AFTER DOWNLOAD SEED AS MUCH AS U CAN PLZZZZZZZZZZZZZZZZ

REGARDS

MSBHATTI